{"glyphs":{"0":{"ha":1272,"x_min":0,"x_max":0,"o":"m 279 972 b 46 486 138 861 46 685 b 279 0 46 288 138 113 l 993 0 b 1226 486 1135 113 1226 288 b 993 972 1226 685 1135 861 z m 357 181 b 240 486 285 258 240 367 b 358 792 240 606 286 714 l 914 792 b 1032 486 986 714 1032 606 b 915 181 1032 367 988 258 z "},"1":{"ha":432,"x_min":0,"x_max":0,"o":"m 363 972 l 46 972 l 46 792 l 168 792 l 168 0 l 363 0 z "},"2":{"ha":1213,"x_min":0,"x_max":0,"o":"m 264 396 l 1049 396 b 1167 683 1124 471 1167 575 b 1049 972 1167 792 1124 896 l 69 972 l 69 792 l 943 792 b 971 683 961 760 971 722 b 944 576 971 646 963 610 l 69 576 l 69 0 l 1139 0 l 1139 181 l 264 181 z "},"3":{"ha":1201,"x_min":0,"x_max":0,"o":"m 1156 685 b 1038 972 1156 790 1113 896 l 69 972 l 69 792 l 935 792 b 963 685 953 760 963 724 b 936 576 963 646 954 610 l 208 576 l 208 396 l 936 396 b 963 288 954 363 963 326 b 935 181 963 249 953 213 l 69 181 l 69 0 l 1038 0 b 1156 288 1113 76 1156 182 b 1106 486 1156 358 1138 426 b 1156 685 1138 546 1156 614 z "},"4":{"ha":1250,"x_min":0,"x_max":0,"o":"m 986 389 l 321 389 b 264 611 285 454 264 529 l 264 1014 l 69 1014 l 69 611 b 217 208 69 457 125 317 l 986 208 l 986 0 l 1181 0 l 1181 1014 l 986 1014 z "},"5":{"ha":1236,"x_min":0,"x_max":0,"o":"m 1049 576 l 264 576 l 264 792 l 1139 792 l 1139 972 l 69 972 l 69 396 l 944 396 b 971 289 963 363 971 326 b 943 181 971 250 961 213 l 69 181 l 69 0 l 1049 0 b 1167 289 1124 76 1167 181 b 1049 576 1167 397 1124 501 z "},"6":{"ha":1272,"x_min":0,"x_max":0,"o":"m 249 576 b 358 792 265 660 304 735 l 914 792 b 982 694 940 763 964 731 l 1192 694 b 993 972 1153 806 1083 901 l 279 972 b 46 486 138 861 46 685 b 279 0 46 288 138 113 l 993 0 b 1226 486 1135 113 1226 288 l 1226 576 z m 357 181 b 249 396 303 238 265 313 l 1024 396 b 915 181 1007 313 969 238 z "},"7":{"ha":1081,"x_min":0,"x_max":0,"o":"m 49 972 l 49 792 l 707 792 b 815 576 761 735 799 660 l 188 576 l 188 396 l 824 396 l 824 0 l 1018 0 l 1018 486 b 785 972 1018 685 926 860 z "},"8":{"ha":1226,"x_min":0,"x_max":0,"o":"m 1181 685 b 1063 972 1181 790 1138 896 l 188 972 b 69 685 113 896 69 790 b 119 486 69 614 88 546 b 69 288 88 426 69 358 b 188 0 69 182 113 76 l 1063 0 b 1181 288 1138 76 1181 182 b 1131 486 1181 358 1163 426 b 1181 685 1163 546 1181 614 z m 960 792 b 988 685 978 760 988 724 b 961 576 988 646 979 610 l 289 576 b 263 685 271 610 263 646 b 290 792 263 724 272 760 z m 290 181 b 263 288 272 213 263 249 b 289 396 263 326 271 363 l 961 396 b 988 288 979 363 988 326 b 960 181 988 249 978 213 z "},"9":{"ha":1272,"x_min":0,"x_max":0,"o":"m 279 972 b 46 486 138 860 46 685 l 46 396 l 1024 396 b 914 181 1007 313 968 238 l 358 181 b 290 278 332 210 308 242 l 81 278 b 279 0 119 167 189 71 l 993 0 b 1226 486 1135 111 1226 288 b 993 972 1226 685 1135 860 z m 915 792 b 1024 576 969 735 1007 660 l 249 576 b 357 792 265 660 303 735 z "}," ":{"ha":486,"x_min":0,"x_max":0,"o":""},"A":{"ha":1236,"x_min":0,"x_max":0,"o":"m 296 972 b 63 486 154 860 63 685 l 63 0 l 257 0 l 257 306 l 979 306 l 979 0 l 1174 0 l 1174 486 b 940 972 1174 685 1082 860 z m 257 486 b 374 792 257 606 301 714 l 863 792 b 979 486 935 714 979 606 z "},"B":{"ha":1226,"x_min":0,"x_max":0,"o":"m 1181 685 b 1063 972 1181 790 1138 896 l 69 972 l 69 0 l 1063 0 b 1181 288 1138 76 1181 182 b 1131 486 1181 358 1163 426 b 1181 685 1163 546 1181 614 z m 960 792 b 988 685 978 760 988 724 b 961 576 988 646 979 610 l 264 576 l 264 792 z m 961 396 b 988 288 979 363 988 326 b 960 181 988 249 978 213 l 264 181 l 264 396 z "},"C":{"ha":1246,"x_min":0,"x_max":0,"o":"m 357 181 b 240 486 285 258 240 367 b 358 792 240 606 286 714 l 914 792 b 994 667 947 756 975 714 l 1200 667 b 993 972 1164 790 1090 896 l 279 972 b 46 486 138 861 46 685 b 279 0 46 288 138 113 l 993 0 b 1200 306 1090 76 1164 183 l 996 306 b 915 181 976 258 949 217 z "},"D":{"ha":1226,"x_min":0,"x_max":0,"o":"m 947 972 l 69 972 l 69 0 l 947 0 b 1181 486 1089 113 1181 288 b 947 972 1181 685 1089 861 z m 264 181 l 264 792 l 868 792 b 986 486 940 714 986 606 b 869 181 986 367 942 258 z "},"E":{"ha":1132,"x_min":0,"x_max":0,"o":"m 1063 972 l 69 972 l 69 0 l 1063 0 l 1063 181 l 264 181 l 264 396 l 993 396 l 993 576 l 264 576 l 264 792 l 1063 792 z "},"F":{"ha":1108,"x_min":0,"x_max":0,"o":"m 1063 972 l 69 972 l 69 0 l 264 0 l 264 396 l 993 396 l 993 576 l 264 576 l 264 792 l 1063 792 z "},"G":{"ha":1272,"x_min":0,"x_max":0,"o":"m 651 396 l 1024 396 b 915 181 1007 313 969 238 l 357 181 b 240 486 285 258 240 367 b 358 792 240 606 286 714 l 914 792 b 982 694 940 763 964 731 l 1192 694 b 993 972 1153 806 1083 901 l 279 972 b 46 486 138 861 46 685 b 279 0 46 288 138 113 l 993 0 b 1226 486 1135 113 1226 288 l 1226 576 l 651 576 z "},"H":{"ha":1250,"x_min":0,"x_max":0,"o":"m 986 576 l 264 576 l 264 972 l 69 972 l 69 0 l 264 0 l 264 396 l 986 396 l 986 0 l 1181 0 l 1181 972 l 986 972 z "},"I":{"ha":332,"x_min":0,"x_max":0,"o":"m 69 0 l 69 972 l 263 972 l 263 0 z "},"J":{"ha":1081,"x_min":0,"x_max":0,"o":"m 824 486 b 707 181 824 367 779 258 l 357 181 b 240 486 285 258 240 367 l 46 486 b 279 0 46 288 138 113 l 785 0 b 1018 486 926 113 1018 288 l 1018 972 l 824 972 z "},"K":{"ha":1169,"x_min":0,"x_max":0,"o":"m 860 972 l 264 489 l 264 972 l 69 972 l 69 0 l 264 0 l 264 272 l 435 411 l 874 4 l 1124 4 l 571 522 l 1124 972 z "},"L":{"ha":949,"x_min":0,"x_max":0,"o":"m 264 972 l 69 972 l 69 0 l 903 0 l 903 181 l 264 181 z "},"M":{"ha":1278,"x_min":0,"x_max":0,"o":"m 639 575 l 264 972 l 69 972 l 69 0 l 264 0 l 264 722 l 639 325 l 1014 722 l 1014 0 l 1208 0 l 1208 972 l 1014 972 z "},"N":{"ha":1250,"x_min":0,"x_max":0,"o":"m 986 575 l 264 972 l 69 972 l 69 0 l 264 0 l 264 764 l 986 367 l 986 0 l 1181 0 l 1181 972 l 986 972 z "},"O":{"ha":1272,"x_min":0,"x_max":0,"o":"m 279 972 b 46 486 138 861 46 685 b 279 0 46 288 138 113 l 993 0 b 1226 486 1135 113 1226 288 b 993 972 1226 685 1135 861 z m 357 181 b 240 486 285 258 240 367 b 358 792 240 606 286 714 l 914 792 b 1032 486 986 714 1032 606 b 915 181 1032 367 988 258 z "},"P":{"ha":1226,"x_min":0,"x_max":0,"o":"m 1038 972 l 69 972 l 69 0 l 264 0 l 264 306 l 1038 306 b 1181 639 1129 392 1181 513 b 1038 972 1181 765 1128 886 z m 264 792 l 940 792 b 986 639 971 747 986 694 b 942 486 986 582 971 531 l 264 486 z "},"Q":{"ha":1272,"x_min":0,"x_max":0,"o":"m 1226 486 b 993 972 1226 685 1135 861 l 279 972 b 46 486 138 861 46 685 b 279 0 46 288 138 113 l 1179 0 l 1126 146 b 1226 486 1189 243 1226 360 z m 357 181 b 240 486 285 258 240 367 b 358 792 240 606 286 714 l 914 792 b 1032 486 986 714 1032 606 b 1022 392 1032 454 1029 422 l 843 392 l 918 183 b 915 181 917 183 917 182 z "},"R":{"ha":1226,"x_min":0,"x_max":0,"o":"m 1181 639 b 1038 972 1181 765 1128 886 l 69 972 l 69 0 l 264 0 l 264 306 l 874 306 l 985 0 l 1179 0 l 1060 329 b 1181 639 1138 413 1181 524 z m 940 792 b 986 639 971 747 986 694 b 942 486 986 582 971 531 l 264 486 l 264 792 z "},"S":{"ha":1272,"x_min":0,"x_max":0,"o":"m 1081 576 l 296 576 b 269 683 278 610 269 646 b 297 792 269 722 279 760 l 1171 792 l 1171 972 l 192 972 b 74 683 117 896 74 792 b 192 396 74 575 117 471 l 976 396 b 1003 289 994 363 1003 326 b 975 181 1003 250 993 213 l 101 181 l 101 0 l 1081 0 b 1199 289 1156 76 1199 181 b 1081 576 1199 397 1156 501 z "},"T":{"ha":1085,"x_min":0,"x_max":0,"o":"m 1039 972 l 46 972 l 46 792 l 446 792 l 446 0 l 640 0 l 640 792 l 1039 792 z "},"U":{"ha":1236,"x_min":0,"x_max":0,"o":"m 979 486 b 863 181 979 367 935 258 l 374 181 b 257 486 301 258 257 367 l 257 972 l 63 972 l 63 486 b 296 0 63 288 154 113 l 940 0 b 1174 486 1082 113 1174 288 l 1174 972 l 979 972 z "},"V":{"ha":1150,"x_min":0,"x_max":0,"o":"m 642 181 l 508 181 l 218 972 l 24 972 l 381 0 l 769 0 l 1126 972 l 932 972 z "},"W":{"ha":1458,"x_min":0,"x_max":0,"o":"m 1201 486 b 1085 181 1201 367 1157 258 l 943 181 b 826 486 871 258 826 367 l 826 972 l 632 972 l 632 486 b 515 181 632 367 588 258 l 374 181 b 257 486 301 258 257 367 l 257 972 l 63 972 l 63 486 b 296 0 63 288 154 113 l 593 0 b 729 151 646 42 692 93 b 865 0 767 93 813 42 l 1163 0 b 1396 486 1304 113 1396 288 l 1396 972 l 1201 972 z "},"X":{"ha":1236,"x_min":0,"x_max":0,"o":"m 979 972 l 979 882 b 863 576 979 763 935 654 l 374 576 b 257 882 301 654 257 763 l 257 972 l 63 972 l 63 882 b 204 486 63 731 115 593 b 63 90 115 379 63 242 l 63 0 l 257 0 l 257 90 b 374 396 257 210 301 318 l 863 396 b 979 90 935 318 979 210 l 979 0 l 1174 0 l 1174 90 b 1032 486 1174 242 1121 379 b 1174 882 1121 593 1174 731 l 1174 972 z "},"Y":{"ha":1122,"x_min":0,"x_max":0,"o":"m 561 468 l 232 972 l 24 972 l 464 306 l 464 0 l 658 0 l 658 306 l 1099 972 l 890 972 z "},"Z":{"ha":1085,"x_min":0,"x_max":0,"o":"m 46 972 l 46 792 l 771 792 l 46 181 l 46 0 l 1039 0 l 1039 181 l 314 181 l 1039 792 l 1039 972 z "},"a":{"ha":1250,"x_min":0,"x_max":0,"o":"m 121 806 l 121 639 l 960 639 b 1017 486 986 593 1007 542 l 51 486 b 46 403 47 460 46 432 b 193 0 46 249 101 107 l 1204 0 l 1204 403 b 1057 806 1204 557 1149 697 z m 292 167 b 233 319 264 213 244 264 l 1024 319 l 1024 167 z "},"b":{"ha":1226,"x_min":0,"x_max":0,"o":"m 250 806 l 250 1014 l 69 1014 l 69 0 l 1033 0 b 1181 403 1125 108 1181 249 b 1033 806 1181 557 1125 699 z m 935 639 b 1000 403 975 571 1000 490 b 936 167 1000 315 976 235 l 250 167 l 250 639 z "},"c":{"ha":1244,"x_min":0,"x_max":0,"o":"m 290 167 b 226 403 250 235 226 315 b 292 639 226 490 251 571 l 958 639 b 1017 486 986 593 1006 542 l 1199 486 b 1057 806 1182 608 1132 718 l 193 806 b 46 403 101 699 46 557 b 193 0 46 249 101 108 l 1057 0 b 1199 319 1132 89 1182 199 l 1017 319 b 960 167 1007 264 988 213 z "},"d":{"ha":1226,"x_min":0,"x_max":0,"o":"m 976 806 l 193 806 b 46 403 101 699 46 557 b 193 0 46 249 101 108 l 1157 0 l 1157 1014 l 976 1014 z m 290 167 b 226 403 250 235 226 315 b 292 639 226 490 251 571 l 976 639 l 976 167 z "},"e":{"ha":1250,"x_min":0,"x_max":0,"o":"m 233 319 l 1199 319 b 1204 403 1203 346 1204 374 b 1057 806 1204 557 1149 699 l 193 806 b 46 403 101 699 46 557 b 193 0 46 249 101 108 l 1129 0 l 1129 167 l 290 167 b 233 319 264 213 243 264 z m 233 486 b 292 639 244 542 264 593 l 958 639 b 1017 486 986 593 1006 542 z "},"f":{"ha":982,"x_min":0,"x_max":0,"o":"m 936 972 l 193 972 b 46 569 101 864 46 724 l 46 0 l 226 0 l 226 458 l 867 458 l 867 625 l 229 625 b 290 806 238 692 258 753 l 936 806 z "},"g":{"ha":1226,"x_min":0,"x_max":0,"o":"m 1157 806 l 193 806 b 46 403 101 697 46 557 b 193 0 46 249 101 107 l 969 0 b 911 -153 958 -56 939 -107 l 74 -153 l 74 -319 l 1010 -319 b 1157 69 1099 -215 1154 -79 z m 976 167 l 292 167 b 226 403 251 235 226 315 b 290 639 226 490 250 571 l 976 639 z "},"h":{"ha":1226,"x_min":0,"x_max":0,"o":"m 250 806 l 250 1014 l 69 1014 l 69 0 l 250 0 l 250 639 l 936 639 b 1000 403 976 571 1000 490 l 1000 0 l 1181 0 l 1181 403 b 1033 806 1181 557 1125 697 z "},"i":{"ha":333,"x_min":0,"x_max":0,"o":"m 167 790 b 278 903 229 790 278 840 b 167 1014 278 964 229 1014 b 56 903 106 1014 56 964 b 167 790 56 840 106 790 z m 76 0 l 257 0 l 257 694 l 76 694 z "},"j":{"ha":333,"x_min":0,"x_max":0,"o":"m 167 790 b 278 903 229 790 278 840 b 167 1014 278 964 229 1014 b 56 903 106 1014 56 964 b 167 790 56 840 106 790 z m 76 153 b -40 -153 76 33 32 -75 l 110 -250 b 257 153 201 -142 257 -1 l 257 694 l 76 694 z "},"k":{"ha":1122,"x_min":0,"x_max":0,"o":"m 1076 4 l 524 386 l 1071 806 l 828 806 l 250 357 l 250 1014 l 69 1014 l 69 0 l 250 0 l 250 176 l 394 286 l 797 4 z "},"l":{"ha":319,"x_min":0,"x_max":0,"o":"m 69 0 l 250 0 l 250 1014 l 69 1014 z "},"m":{"ha":1338,"x_min":0,"x_max":0,"o":"m 1144 806 l 69 806 l 69 0 l 250 0 l 250 639 l 533 639 b 597 403 574 571 597 490 l 597 0 l 778 0 l 778 403 b 732 639 778 486 761 567 l 1047 639 b 1111 403 1088 571 1111 490 l 1111 0 l 1292 0 l 1292 403 b 1144 806 1292 557 1236 697 z "},"n":{"ha":1226,"x_min":0,"x_max":0,"o":"m 1033 806 l 69 806 l 69 0 l 250 0 l 250 639 l 936 639 b 1000 403 976 571 1000 490 l 1000 0 l 1181 0 l 1181 403 b 1033 806 1181 557 1125 697 z "},"o":{"ha":1250,"x_min":0,"x_max":0,"o":"m 193 806 b 46 403 101 699 46 557 b 193 0 46 249 101 108 l 1057 0 b 1204 403 1149 108 1204 249 b 1057 806 1204 557 1149 699 z m 1024 403 b 960 167 1024 315 1000 235 l 290 167 b 226 403 250 235 226 315 b 292 639 226 490 251 571 l 958 639 b 1024 403 999 571 1024 490 z "},"p":{"ha":1226,"x_min":0,"x_max":0,"o":"m 1181 403 b 1033 806 1181 557 1125 697 l 69 806 l 69 -208 l 250 -208 l 250 0 l 1033 0 b 1181 403 1125 107 1181 249 z m 936 639 b 1000 403 976 571 1000 490 b 935 167 1000 315 975 235 l 250 167 l 250 639 z "},"q":{"ha":1226,"x_min":0,"x_max":0,"o":"m 1157 806 l 193 806 b 46 403 101 697 46 557 b 193 0 46 249 101 107 l 976 0 l 976 -208 l 1157 -208 z m 292 167 b 226 403 251 235 226 315 b 290 639 226 490 250 571 l 976 639 l 976 167 z "},"r":{"ha":982,"x_min":0,"x_max":0,"o":"m 193 806 b 46 403 101 697 46 557 l 46 0 l 226 0 l 226 403 b 290 639 226 490 250 571 l 936 639 l 936 806 z "},"s":{"ha":1217,"x_min":0,"x_max":0,"o":"m 242 486 b 225 563 231 510 225 535 b 243 639 225 590 231 615 l 1132 639 l 1132 806 l 140 806 b 46 563 81 740 46 653 b 140 319 46 472 79 386 l 974 319 b 992 243 986 296 992 271 b 975 167 992 215 986 190 l 85 167 l 85 0 l 1076 0 b 1171 243 1138 67 1171 153 b 1076 486 1171 333 1136 421 z "},"t":{"ha":431,"x_min":0,"x_max":0,"o":"m 306 806 l 306 944 l 125 944 l 125 806 l 28 806 l 28 639 l 125 639 l 125 0 l 306 0 l 306 639 l 403 639 l 403 806 z "},"u":{"ha":1226,"x_min":0,"x_max":0,"o":"m 976 167 l 290 167 b 226 403 250 235 226 315 l 226 806 l 46 806 l 46 403 b 193 0 46 249 101 108 l 1157 0 l 1157 806 l 976 806 z "},"v":{"ha":1094,"x_min":0,"x_max":0,"o":"m 621 181 l 474 181 l 218 806 l 24 806 l 353 0 l 742 0 l 1071 806 l 876 806 z "},"w":{"ha":1338,"x_min":0,"x_max":0,"o":"m 1088 167 l 804 167 b 740 403 764 235 740 315 l 740 806 l 560 806 l 560 403 b 606 167 560 319 576 239 l 290 167 b 226 403 250 235 226 315 l 226 806 l 46 806 l 46 403 b 193 0 46 249 101 108 l 1268 0 l 1268 806 l 1088 806 z "},"x":{"ha":1203,"x_min":0,"x_max":0,"o":"m 976 806 l 976 722 b 913 486 976 635 953 554 l 290 486 b 226 722 250 554 226 635 l 226 806 l 46 806 l 46 722 b 133 403 46 606 78 496 b 46 83 78 310 46 200 l 46 0 l 226 0 l 226 83 b 290 319 226 171 250 251 l 913 319 b 976 83 953 251 976 171 l 976 0 l 1157 0 l 1157 83 b 1069 403 1157 200 1125 310 b 1157 722 1125 496 1157 606 l 1157 806 z "},"y":{"ha":1226,"x_min":0,"x_max":0,"o":"m 976 167 l 290 167 b 226 403 250 235 226 315 l 226 806 l 46 806 l 46 403 b 193 0 46 249 101 108 l 969 0 b 911 -153 958 -56 939 -107 l 74 -153 l 74 -319 l 1010 -319 b 1157 83 1101 -212 1157 -71 l 1157 806 l 976 806 z "},"z":{"ha":1085,"x_min":0,"x_max":0,"o":"m 46 806 l 46 639 l 743 639 l 46 167 l 46 0 l 1039 0 l 1039 167 l 342 167 l 1039 639 l 1039 806 z "},"*":{"ha":708,"x_min":0,"x_max":0,"o":"m 588 914 l 400 789 l 410 1014 l 299 1014 l 308 789 l 121 913 l 64 818 l 267 708 l 64 599 l 121 503 l 308 628 l 299 403 l 410 403 l 400 628 l 588 504 l 644 599 l 442 708 l 644 818 z "},"\\":{"ha":667,"x_min":0,"x_max":0,"o":"m 621 -236 l 185 1014 l 46 1014 l 482 -236 z "},"·":{"ha":333,"x_min":0,"x_max":0,"o":"m 167 304 b 278 417 229 304 278 354 b 167 528 278 478 229 528 b 56 417 106 528 56 478 b 167 304 56 354 106 304 z "},"•":{"ha":469,"x_min":0,"x_max":0,"o":"m 235 236 b 414 417 336 236 414 317 b 235 596 414 515 336 596 b 56 417 136 596 56 515 b 235 236 56 317 136 236 z "},":":{"ha":333,"x_min":0,"x_max":0,"o":"m 167 443 b 278 556 229 443 278 493 b 167 667 278 617 229 667 b 56 556 106 667 56 617 b 167 443 56 493 106 443 z m 167 -29 b 278 83 229 -29 278 21 b 167 194 278 144 229 194 b 56 83 106 194 56 144 b 167 -29 56 21 106 -29 z "},",":{"ha":333,"x_min":0,"x_max":0,"o":"m 1 -108 l 196 -108 l 306 194 l 111 194 z "},"…":{"ha":1000,"x_min":0,"x_max":0,"o":"m 167 -29 b 278 83 229 -29 278 21 b 167 194 278 144 229 194 b 56 83 106 194 56 144 b 167 -29 56 21 106 -29 z m 500 -29 b 611 83 563 -29 611 21 b 500 194 611 144 563 194 b 389 83 439 194 389 144 b 500 -29 389 21 439 -29 z m 833 -29 b 944 83 896 -29 944 21 b 833 194 944 144 896 194 b 722 83 772 194 722 144 b 833 -29 722 21 772 -29 z "},"!":{"ha":333,"x_min":0,"x_max":0,"o":"m 243 292 l 257 986 l 76 986 l 90 292 z m 167 196 b 56 83 106 196 56 146 b 167 -28 56 22 106 -28 b 278 83 229 -28 278 22 b 167 196 278 146 229 196 z "},"¡":{"ha":333,"x_min":0,"x_max":0,"o":"m 167 554 b 278 667 229 554 278 604 b 167 778 278 728 229 778 b 56 667 106 778 56 728 b 167 554 56 604 106 554 z m 76 -236 l 257 -236 l 243 458 l 90 458 z "},"#":{"ha":1085,"x_min":0,"x_max":0,"o":"m 1015 750 l 874 750 l 924 1014 l 785 1014 l 735 750 l 443 750 l 493 1014 l 354 1014 l 304 750 l 168 750 l 140 611 l 276 611 l 232 375 l 96 375 l 69 236 l 206 236 l 160 0 l 299 0 l 344 236 l 636 236 l 590 0 l 729 0 l 775 236 l 917 236 l 943 375 l 801 375 l 846 611 l 988 611 z m 371 375 l 415 611 l 707 611 l 663 375 z "},".":{"ha":333,"x_min":0,"x_max":0,"o":"m 167 -29 b 278 83 229 -29 278 21 b 167 194 278 144 229 194 b 56 83 106 194 56 144 b 167 -29 56 21 106 -29 z "},"?":{"ha":1039,"x_min":0,"x_max":0,"o":"m 796 849 b 814 772 808 825 814 800 b 797 696 814 744 808 719 l 346 696 l 354 292 l 507 292 l 513 529 l 899 529 b 993 772 960 596 993 682 b 899 1015 993 863 958 950 l 46 1015 l 46 849 z m 319 83 b 431 -28 319 22 369 -28 b 542 83 493 -28 542 22 b 431 196 542 146 493 196 b 319 83 369 196 319 146 z "},"¿":{"ha":1039,"x_min":0,"x_max":0,"o":"m 719 667 b 608 778 719 728 669 778 b 497 667 546 778 497 728 b 608 554 497 604 546 554 b 719 667 669 554 719 604 z m 243 -99 b 225 -22 231 -75 225 -50 b 242 54 225 6 231 31 l 693 54 l 685 458 l 532 458 l 526 221 l 140 221 b 46 -22 79 154 46 68 b 140 -265 46 -112 81 -200 l 993 -265 l 993 -99 z "},"\"":{"ha":569,"x_min":0,"x_max":0,"o":"m 236 708 l 250 1014 l 69 1014 l 83 708 z m 486 708 l 500 1014 l 319 1014 l 333 708 z "},"'":{"ha":319,"x_min":0,"x_max":0,"o":"m 236 708 l 250 1014 l 69 1014 l 83 708 z "},";":{"ha":333,"x_min":0,"x_max":0,"o":"m 174 443 b 285 556 236 443 285 493 b 174 667 285 617 236 667 b 63 556 113 667 63 617 b 174 443 63 493 113 443 z m -26 -108 l 168 -108 l 278 194 l 83 194 z "},"/":{"ha":558,"x_min":0,"x_max":0,"o":"m 513 1014 l 374 1014 l -62 -236 l 76 -236 z "},"_":{"ha":872,"x_min":0,"x_max":0,"o":"m 69 -187 l 803 -187 l 803 -49 l 69 -49 z "},"{":{"ha":571,"x_min":0,"x_max":0,"o":"m 525 917 l 525 1083 l 254 1083 b 107 681 163 975 107 835 l 107 569 l 46 569 l 46 403 l 107 403 l 107 278 b 254 -111 110 129 165 -6 l 525 -111 l 525 56 l 351 56 b 288 292 311 124 288 204 l 288 681 b 351 917 288 768 311 849 z "},"}":{"ha":571,"x_min":0,"x_max":0,"o":"m 464 569 l 464 681 b 317 1083 464 835 408 975 l 46 1083 l 46 917 l 219 917 b 283 681 260 849 283 768 l 283 292 b 219 56 283 204 260 124 l 46 56 l 46 -111 l 317 -111 b 464 278 406 -6 461 129 l 464 403 l 525 403 l 525 569 z "},"[":{"ha":553,"x_min":0,"x_max":0,"o":"m 507 1083 l 69 1083 l 69 -111 l 507 -111 l 507 56 l 264 56 l 264 917 l 507 917 z "},"]":{"ha":553,"x_min":0,"x_max":0,"o":"m 483 1083 l 46 1083 l 46 917 l 289 917 l 289 56 l 46 56 l 46 -111 l 483 -111 z "},"(":{"ha":542,"x_min":0,"x_max":0,"o":"m 46 486 b 279 -111 46 176 165 0 l 542 -111 b 240 486 414 -33 240 144 b 542 1083 240 828 414 1006 l 279 1083 b 46 486 165 972 46 796 z "},")":{"ha":565,"x_min":0,"x_max":0,"o":"m 519 486 b 286 1083 519 796 400 972 l 24 1083 b 325 486 151 1006 325 828 b 24 -111 325 144 151 -33 l 286 -111 b 519 486 400 0 519 176 z "},"-":{"ha":525,"x_min":0,"x_max":0,"o":"m 69 340 l 456 340 l 456 479 l 69 479 z "},"«":{"ha":942,"x_min":0,"x_max":0,"o":"m 375 694 l 69 369 l 375 44 l 581 44 l 275 369 l 581 694 z m 694 694 l 389 369 l 694 44 l 900 44 l 594 369 l 900 694 z "},"»":{"ha":946,"x_min":0,"x_max":0,"o":"m 46 694 l 351 369 l 46 44 l 251 44 l 557 369 l 251 694 z m 365 694 l 671 369 l 365 44 l 571 44 l 876 369 l 571 694 z "},"‹":{"ha":626,"x_min":0,"x_max":0,"o":"m 375 694 l 69 369 l 375 44 l 581 44 l 275 369 l 581 694 z "},"›":{"ha":626,"x_min":0,"x_max":0,"o":"m 46 694 l 351 369 l 46 44 l 251 44 l 557 369 l 251 694 z "},"„":{"ha":625,"x_min":0,"x_max":0,"o":"m 1 -108 l 196 -108 l 306 194 l 111 194 z m 293 -108 l 488 -108 l 597 194 l 403 194 z "},"“":{"ha":625,"x_min":0,"x_max":0,"o":"m 1 669 l 196 669 l 306 972 l 111 972 z m 293 669 l 488 669 l 597 972 l 403 972 z "},"”":{"ha":625,"x_min":0,"x_max":0,"o":"m 1 669 l 196 669 l 306 972 l 111 972 z m 293 669 l 488 669 l 597 972 l 403 972 z "},"‘":{"ha":333,"x_min":0,"x_max":0,"o":"m 1 669 l 196 669 l 306 972 l 111 972 z "},"’":{"ha":333,"x_min":0,"x_max":0,"o":"m 306 972 l 111 972 l 1 669 l 196 669 z "},"‚":{"ha":333,"x_min":0,"x_max":0,"o":"m 1 -108 l 196 -108 l 306 194 l 111 194 z "},"$":{"ha":1272,"x_min":0,"x_max":0,"o":"m 1199 289 b 1081 576 1199 397 1156 501 l 726 576 l 726 792 l 1171 792 l 1171 972 l 726 972 l 726 1053 l 546 1053 l 546 972 l 192 972 b 74 683 117 896 74 792 b 192 396 74 575 117 471 l 546 396 l 546 181 l 101 181 l 101 0 l 546 0 l 546 -81 l 726 -81 l 726 0 l 1081 0 b 1199 289 1156 76 1199 181 z m 296 576 b 269 683 278 610 269 646 b 297 792 269 722 279 760 l 546 792 l 546 576 z m 976 396 b 1003 289 994 363 1003 326 b 975 181 1003 250 993 213 l 726 181 l 726 396 z "},"+":{"ha":833,"x_min":0,"x_max":0,"o":"m 507 493 l 507 757 l 326 757 l 326 493 l 69 493 l 69 326 l 326 326 l 326 63 l 507 63 l 507 326 l 764 326 l 764 493 z "},"−":{"ha":833,"x_min":0,"x_max":0,"o":"m 69 319 l 764 319 l 764 500 l 69 500 z "},"=":{"ha":833,"x_min":0,"x_max":0,"o":"m 69 472 l 764 472 l 764 653 l 69 653 z m 69 153 l 764 153 l 764 333 l 69 333 z "},">":{"ha":833,"x_min":0,"x_max":0,"o":"m 69 611 l 590 403 l 69 194 l 69 14 l 764 292 l 764 514 l 69 792 z "},"<":{"ha":833,"x_min":0,"x_max":0,"o":"m 69 514 l 69 292 l 764 14 l 764 194 l 243 403 l 764 611 l 764 792 z "},"~":{"ha":775,"x_min":0,"x_max":0,"o":"m 588 522 b 535 394 588 440 568 394 b 231 532 443 394 368 532 b 69 303 135 532 69 443 l 188 303 b 247 414 188 368 211 414 b 558 276 335 414 400 276 b 706 522 650 276 706 365 z "},"%":{"ha":1260,"x_min":0,"x_max":0,"o":"m 69 792 b 179 565 69 700 113 618 l 513 565 b 621 792 578 618 621 700 b 513 1019 621 885 578 967 l 179 1019 b 69 792 113 967 69 885 z m 261 0 l 1144 1014 l 1006 1014 l 122 0 z m 182 792 b 229 919 182 840 200 886 l 461 919 b 510 792 490 886 510 840 b 461 665 510 743 492 699 l 229 665 b 182 792 200 699 182 743 z m 639 222 b 749 -4 639 131 682 49 l 1082 -4 b 1190 222 1147 49 1190 131 b 1082 450 1190 315 1147 397 l 749 450 b 639 222 682 397 639 315 z m 751 222 b 799 350 751 271 769 317 l 1031 350 b 1079 222 1060 317 1079 271 b 1031 96 1079 174 1061 129 l 799 96 b 751 222 769 129 751 174 z "},"@":{"ha":1372,"x_min":0,"x_max":0,"o":"m 299 1014 b 46 486 144 893 46 701 b 299 -42 46 271 144 81 l 722 -42 l 722 124 l 356 124 b 217 486 269 217 217 344 b 357 849 217 628 271 756 l 1015 849 b 1156 486 1101 756 1156 628 b 1017 124 1156 344 1103 217 l 1015 124 l 1015 751 l 438 751 b 340 486 376 681 340 588 b 438 222 340 385 376 292 l 871 222 l 871 -42 l 1074 -42 b 1326 486 1228 81 1326 271 b 1074 1014 1326 701 1228 893 z m 529 346 b 488 486 503 386 488 435 b 529 628 488 539 503 588 l 869 628 l 869 346 z "},"&":{"ha":1250,"x_min":0,"x_max":0,"o":"m 1015 288 b 988 181 1015 249 1006 213 l 878 181 l 732 396 l 951 396 b 1069 685 1028 472 1069 575 b 951 972 1069 790 1026 896 l 257 972 b 139 685 182 896 139 790 b 161 549 139 638 147 592 b 69 288 101 475 69 385 b 188 0 69 182 113 76 l 790 0 l 851 -90 l 1060 -90 l 999 0 l 1090 0 b 1208 288 1165 76 1208 182 z m 358 576 b 332 685 340 610 332 646 b 360 792 332 724 342 760 l 849 792 b 876 685 867 760 876 724 b 850 576 876 646 868 610 z m 290 181 b 263 288 272 213 263 249 b 289 396 263 326 271 363 l 524 396 l 669 181 z "},"|":{"ha":278,"x_min":0,"x_max":0,"o":"m 208 -236 l 208 1014 l 69 1014 l 69 -236 z "},"^":{"ha":575,"x_min":0,"x_max":0,"o":"m 364 1015 l 314 1015 l 226 1018 l 46 589 l 158 588 l 293 907 l 417 583 l 529 581 z "}}}
